<?xml version="1.0" encoding="UTF-8" standalone="no"?>
<!-- Created with Inkscape (http://www.inkscape.org/) -->

<svg
   xmlns:dc="http://purl.org/dc/elements/1.1/"
   xmlns:cc="http://creativecommons.org/ns#"
   xmlns:rdf="http://www.w3.org/1999/02/22-rdf-syntax-ns#"
   xmlns:svg="http://www.w3.org/2000/svg"
   xmlns="http://www.w3.org/2000/svg"
   xmlns:xlink="http://www.w3.org/1999/xlink"
   xmlns:sodipodi="http://sodipodi.sourceforge.net/DTD/sodipodi-0.dtd"
   xmlns:inkscape="http://www.inkscape.org/namespaces/inkscape"
   width="288"
   height="48"
   id="svg2"
   version="1.1"
   inkscape:version="0.47pre4 r22446"
   sodipodi:docname="status.svg"
   inkscape:export-filename="/home/fenix/Development/efljab/jabelm/status.png"
   inkscape:export-xdpi="90.099998"
   inkscape:export-ydpi="90.099998"
   style="display:inline">
  <defs
     id="defs4">
    <linearGradient
       id="linearGradient3901">
      <stop
         id="stop3903"
         offset="0"
         style="stop-color:#f2f2f2;stop-opacity:1;" />
      <stop
         id="stop3907"
         offset="1"
         style="stop-color:#c5c5c5;stop-opacity:1;" />
    </linearGradient>
    <linearGradient
       id="linearGradient3812">
      <stop
         style="stop-color:#989898;stop-opacity:1;"
         offset="0"
         id="stop3814" />
      <stop
         id="stop3820"
         offset="0.36741748"
         style="stop-color:#747474;stop-opacity:1;" />
      <stop
         style="stop-color:#000000;stop-opacity:1;"
         offset="1"
         id="stop3816" />
    </linearGradient>
    <radialGradient
       inkscape:collect="always"
       xlink:href="#linearGradient3812"
       id="radialGradient3818"
       cx="73.999992"
       cy="26.000002"
       fx="70.021538"
       fy="22.021544"
       r="16"
       gradientUnits="userSpaceOnUse"
       gradientTransform="matrix(1.5000001,3.7733156e-7,-3.8896974e-7,1.5,-36.999991,-13.000031)" />
    <linearGradient
       inkscape:collect="always"
       xlink:href="#linearGradient3901"
       id="linearGradient3899"
       x1="84.5"
       y1="38"
       x2="62.625"
       y2="14.5"
       gradientUnits="userSpaceOnUse" />
    <linearGradient
       inkscape:collect="always"
       xlink:href="#linearGradient3901-1"
       id="linearGradient3899-6"
       x1="84.5"
       y1="38"
       x2="62.625"
       y2="14.5"
       gradientUnits="userSpaceOnUse" />
    <linearGradient
       id="linearGradient3901-1">
      <stop
         id="stop3903-0"
         offset="0"
         style="stop-color:#ffffff;stop-opacity:1;" />
      <stop
         id="stop3907-2"
         offset="1"
         style="stop-color:#e4e4e4;stop-opacity:1;" />
    </linearGradient>
    <linearGradient
       id="linearGradient3812-8">
      <stop
         style="stop-color:#cacaca;stop-opacity:1;"
         offset="0"
         id="stop3814-6" />
      <stop
         id="stop3820-3"
         offset="0.36741748"
         style="stop-color:#adadad;stop-opacity:1;" />
      <stop
         style="stop-color:#5c5c5c;stop-opacity:1;"
         offset="1"
         id="stop3816-2" />
    </linearGradient>
    <radialGradient
       r="16"
       fy="22.021544"
       fx="70.021538"
       cy="26.000002"
       cx="73.999992"
       gradientTransform="matrix(1.5000002,-1.5969941e-7,1.596994e-7,1.5,-37.000008,-12.999991)"
       gradientUnits="userSpaceOnUse"
       id="radialGradient3990"
       xlink:href="#linearGradient3812-8"
       inkscape:collect="always" />
    <radialGradient
       inkscape:collect="always"
       xlink:href="#linearGradient3812"
       id="radialGradient4030"
       cx="120"
       cy="24"
       fx="115"
       fy="17.333334"
       r="20"
       gradientUnits="userSpaceOnUse"
       gradientTransform="matrix(1.2,0,0,1.2,-24,-4.8)" />
    <linearGradient
       inkscape:collect="always"
       xlink:href="#linearGradient3901"
       id="linearGradient4079"
       x1="116.43139"
       y1="41.333332"
       x2="86.596031"
       y2="15.666667"
       gradientUnits="userSpaceOnUse"
       gradientTransform="matrix(0.93848376,0,0,0.85714286,18.731034,-9.4285714)" />
    <radialGradient
       inkscape:collect="always"
       xlink:href="#linearGradient3812"
       id="radialGradient4088"
       cx="168"
       cy="20"
       fx="161.51819"
       fy="15.934136"
       r="20"
       gradientUnits="userSpaceOnUse"
       gradientTransform="matrix(1.2,0,0,1,-33.6,0)" />
    <linearGradient
       inkscape:collect="always"
       xlink:href="#linearGradient3901"
       id="linearGradient4139"
       x1="186"
       y1="36"
       x2="144"
       y2="0"
       gradientUnits="userSpaceOnUse" />
    <radialGradient
       inkscape:collect="always"
       xlink:href="#linearGradient3812"
       id="radialGradient4212"
       cx="177"
       cy="40"
       fx="175.58578"
       fy="38.895145"
       r="5"
       gradientTransform="matrix(1,0,0,0.5875,0,16.5)"
       gradientUnits="userSpaceOnUse" />
    <radialGradient
       inkscape:collect="always"
       xlink:href="#linearGradient3812"
       id="radialGradient4244"
       cx="184"
       cy="45"
       fx="184"
       fy="45"
       r="2"
       gradientTransform="matrix(1,0,0,0.5,0,22.5)"
       gradientUnits="userSpaceOnUse" />
    <linearGradient
       inkscape:collect="always"
       xlink:href="#linearGradient3901-1"
       id="linearGradient4252"
       x1="180.4375"
       y1="41.3125"
       x2="173.5625"
       y2="38.6875"
       gradientUnits="userSpaceOnUse" />
    <linearGradient
       inkscape:collect="always"
       xlink:href="#linearGradient3901-1"
       id="linearGradient4252-6"
       x1="180.4375"
       y1="41.3125"
       x2="173.5625"
       y2="38.6875"
       gradientUnits="userSpaceOnUse" />
    <linearGradient
       gradientTransform="translate(48,0)"
       inkscape:collect="always"
       xlink:href="#linearGradient3901-1"
       id="linearGradient4139-0"
       x1="186"
       y1="36"
       x2="144"
       y2="0"
       gradientUnits="userSpaceOnUse" />
    <radialGradient
       inkscape:collect="always"
       xlink:href="#linearGradient3812-8"
       id="radialGradient4244-8"
       cx="184"
       cy="45"
       fx="184"
       fy="45"
       r="2"
       gradientTransform="matrix(1,0,0,0.5,0,22.5)"
       gradientUnits="userSpaceOnUse" />
    <radialGradient
       inkscape:collect="always"
       xlink:href="#linearGradient3812-8"
       id="radialGradient4212-5"
       cx="177"
       cy="40"
       fx="175.58578"
       fy="38.895145"
       r="5"
       gradientTransform="matrix(1,0,0,0.5875,0,16.5)"
       gradientUnits="userSpaceOnUse" />
    <radialGradient
       r="20"
       fy="15.934136"
       fx="161.51819"
       cy="20"
       cx="168"
       gradientTransform="matrix(1.2,0,0,1,14.4,0)"
       gradientUnits="userSpaceOnUse"
       id="radialGradient4312"
       xlink:href="#linearGradient3812-8"
       inkscape:collect="always" />
    <linearGradient
       inkscape:collect="always"
       xlink:href="#linearGradient3901-1"
       id="linearGradient3899-6-0"
       x1="84.5"
       y1="38"
       x2="62.625"
       y2="14.5"
       gradientUnits="userSpaceOnUse" />
    <radialGradient
       r="16"
       fy="22.021544"
       fx="70.021538"
       cy="26.000002"
       cx="73.999992"
       gradientTransform="matrix(1.5000002,-1.5969941e-7,1.596994e-7,1.5,152.99999,-14.999991)"
       gradientUnits="userSpaceOnUse"
       id="radialGradient4672"
       xlink:href="#linearGradient3812-8"
       inkscape:collect="always" />
    <linearGradient
       inkscape:collect="always"
       xlink:href="#linearGradient3901-1"
       id="linearGradient4731"
       x1="276"
       y1="34"
       x2="252"
       y2="14"
       gradientUnits="userSpaceOnUse" />
  </defs>
  <sodipodi:namedview
     id="base"
     pagecolor="#ffffff"
     bordercolor="#666666"
     borderopacity="1.0"
     inkscape:pageopacity="0.0"
     inkscape:pageshadow="2"
     inkscape:zoom="4"
     inkscape:cx="179.22197"
     inkscape:cy="12.133583"
     inkscape:document-units="px"
     inkscape:current-layer="layer2"
     showgrid="false"
     inkscape:window-width="1024"
     inkscape:window-height="691"
     inkscape:window-x="0"
     inkscape:window-y="27"
     inkscape:window-maximized="1"
     showguides="true"
     inkscape:guide-bbox="true"
     showborder="true"
     inkscape:showpageshadow="false"
     borderlayer="true">
    <inkscape:grid
       type="xygrid"
       id="grid2873"
       empspacing="8"
       visible="true"
       enabled="true"
       snapvisiblegridlinesonly="true"
       spacingx="2px"
       spacingy="2px" />
    <sodipodi:guide
       orientation="1,0"
       position="0,48"
       id="guide3854" />
    <sodipodi:guide
       orientation="1,0"
       position="48,48"
       id="guide3856" />
    <sodipodi:guide
       orientation="1,0"
       position="96,48"
       id="guide3858" />
    <sodipodi:guide
       orientation="1,0"
       position="144,48"
       id="guide3860" />
    <sodipodi:guide
       orientation="1,0"
       position="192,48"
       id="guide3862" />
    <sodipodi:guide
       orientation="1,0"
       position="240,48"
       id="guide3864" />
    <sodipodi:guide
       orientation="1,0"
       position="288,48"
       id="guide3866" />
    <sodipodi:guide
       orientation="0,1"
       position="0,0"
       id="guide3870" />
    <sodipodi:guide
       orientation="0,1"
       position="0,48"
       id="guide3872" />
  </sodipodi:namedview>
  <metadata
     id="metadata7">
    <rdf:RDF>
      <cc:Work
         rdf:about="">
        <dc:format>image/svg+xml</dc:format>
        <dc:type
           rdf:resource="http://purl.org/dc/dcmitype/StillImage" />
        <dc:title />
      </cc:Work>
    </rdf:RDF>
  </metadata>
  <g
     inkscape:label="background"
     inkscape:groupmode="layer"
     id="layer1"
     transform="translate(0,-1004.3622)"
     style="display:inline"
     sodipodi:insensitive="true">
    <rect
       style="fill:none;stroke:none"
       id="rect2890-9"
       width="48"
       height="48.000019"
       x="-96"
       y="1004.3622" />
    <use
       x="0"
       y="0"
       xlink:href="#rect2890-9"
       id="use3793"
       transform="translate(96,-3.4765626e-5)"
       width="288"
       height="48" />
    <use
       x="0"
       y="0"
       xlink:href="#rect2890-9"
       id="use3793-6"
       transform="translate(144,-3.4765626e-5)"
       width="288"
       height="48" />
    <use
       x="0"
       y="0"
       xlink:href="#rect2890-9"
       id="use3793-7"
       transform="translate(192,-3.4765626e-5)"
       width="288"
       height="48" />
    <use
       x="0"
       y="0"
       xlink:href="#rect2890-9"
       id="use3793-5"
       transform="translate(240,-3.4765626e-5)"
       width="288"
       height="48" />
    <use
       x="0"
       y="0"
       xlink:href="#rect2890-9"
       id="use3793-1"
       transform="translate(288,-3.4765626e-5)"
       width="288"
       height="48" />
    <use
       x="0"
       y="0"
       xlink:href="#rect2890-9"
       id="use3793-57"
       transform="translate(336,-3.4765626e-5)"
       width="288"
       height="48" />
  </g>
  <g
     inkscape:groupmode="layer"
     id="layer2"
     inkscape:label="drawings"
     style="display:inline">
    <text
       xml:space="preserve"
       style="font-size:8px;font-style:normal;font-weight:normal;text-align:center;text-anchor:middle;fill:#000000;fill-opacity:1;stroke:none;font-family:Bitstream Vera Sans"
       x="23.132812"
       y="-8"
       id="text3874"><tspan
         sodipodi:role="line"
         id="tspan3876"
         x="23.132812"
         y="-8">unavailable</tspan></text>
    <text
       xml:space="preserve"
       style="font-size:8px;font-style:normal;font-weight:normal;text-align:center;text-anchor:middle;fill:#000000;fill-opacity:1;stroke:none;font-family:Bitstream Vera Sans"
       x="71.637886"
       y="-8"
       id="text3874-4"><tspan
         sodipodi:role="line"
         id="tspan3876-9"
         x="71.637886"
         y="-8">available</tspan></text>
    <text
       xml:space="preserve"
       style="font-size:8px;font-style:normal;font-weight:normal;text-align:center;text-anchor:middle;fill:#000000;fill-opacity:1;stroke:none;font-family:Bitstream Vera Sans"
       x="119.12411"
       y="-8"
       id="text3874-4-5"><tspan
         sodipodi:role="line"
         id="tspan3876-9-9"
         x="119.12411"
         y="-8">chat</tspan></text>
    <text
       xml:space="preserve"
       style="font-size:8px;font-style:normal;font-weight:normal;text-align:center;text-anchor:middle;fill:#000000;fill-opacity:1;stroke:none;font-family:Bitstream Vera Sans"
       x="167.39014"
       y="-8"
       id="text3874-4-9"><tspan
         sodipodi:role="line"
         id="tspan3876-9-8"
         x="167.39014"
         y="-8">away</tspan></text>
    <text
       xml:space="preserve"
       style="font-size:8px;font-style:normal;font-weight:normal;text-align:center;text-anchor:middle;fill:#000000;fill-opacity:1;stroke:none;font-family:Bitstream Vera Sans"
       x="214.71436"
       y="-8"
       id="text3874-4-9-3"><tspan
         sodipodi:role="line"
         id="tspan3876-9-8-7"
         x="214.71436"
         y="-8">xa</tspan></text>
    <text
       xml:space="preserve"
       style="font-size:8px;font-style:normal;font-weight:normal;fill:#000000;fill-opacity:1;stroke:none;font-family:Bitstream Vera Sans"
       x="256"
       y="-8"
       id="text3964"><tspan
         sodipodi:role="line"
         id="tspan3966"
         x="256"
         y="-8">dnd</tspan></text>
    <path
       style="fill:url(#radialGradient4030);fill-opacity:1;stroke:none"
       d="m 104,4 c -2.216,0 -4,1.784 -4,4 l 0,20 c 0,2.216 1.784,4 4,4 l 7.71875,0 L 134,44 130.5625,32 136,32 c 2.216,0 4,-1.784 4,-4 l 0,-20 c 0,-2.216 -1.784,-4 -4,-4 l -32,0 z"
       id="rect4076" />
    <path
       style="fill:url(#radialGradient4088);fill-opacity:1;stroke:none"
       d="m 152,4 c -2.216,0 -4,1.784 -4,4 l 0,20 c 0,2.216 1.784,4 4,4 l 8,0 c 0,2.209139 3.58172,4 8,4 4.41828,0 8,-1.790861 8,-4 l 8,0 c 2.216,0 4,-1.784 4,-4 l 0,-20 c 0,-2.216 -1.784,-4 -4,-4 l -32,0 z"
       id="rect4076-6" />
    <path
       sodipodi:type="arc"
       style="fill:url(#radialGradient4212);fill-opacity:1.0;stroke:none"
       id="path4104"
       sodipodi:cx="177"
       sodipodi:cy="40"
       sodipodi:rx="5"
       sodipodi:ry="2"
       d="m 182,40 a 5,2 0 1 1 -10,0 5,2 0 1 1 10,0 z"
       transform="translate(-1,-1.0625)" />
    <path
       sodipodi:type="arc"
       style="fill:url(#radialGradient4244);fill-opacity:1.0;stroke:none"
       id="path4106"
       sodipodi:cx="184"
       sodipodi:cy="45"
       sodipodi:rx="2"
       sodipodi:ry="1"
       d="m 186,45 a 2,1 0 1 1 -4,0 2,1 0 1 1 4,0 z"
       transform="translate(-2,-2)" />
    <path
       sodipodi:type="arc"
       style="fill:url(#radialGradient3818);fill-opacity:1;stroke:none"
       id="path2990"
       sodipodi:cx="74"
       sodipodi:cy="26"
       sodipodi:rx="20"
       sodipodi:ry="20"
       d="m 94,26 a 20,20 0 1 1 -40,0 20,20 0 1 1 40,0 z"
       transform="translate(-2,-2)" />
    <path
       sodipodi:type="arc"
       style="fill:none;stroke:url(#linearGradient3899);stroke-width:1.5;stroke-miterlimit:4;stroke-opacity:1;stroke-dasharray:none;display:inline"
       id="path2990-8"
       sodipodi:cx="74"
       sodipodi:cy="26"
       sodipodi:rx="18"
       sodipodi:ry="18"
       d="m 92,26 a 18,18 0 1 1 -36,0 18,18 0 1 1 36,0 z"
       transform="translate(-2,-2)" />
    <path
       sodipodi:type="arc"
       style="fill:url(#radialGradient3990);fill-opacity:1;stroke:none;display:inline"
       id="path2990-0"
       sodipodi:cx="74"
       sodipodi:cy="26"
       sodipodi:rx="20"
       sodipodi:ry="20"
       d="m 94,26 a 20,20 0 1 1 -40,0 20,20 0 1 1 40,0 z"
       transform="translate(-50,-2)" />
    <path
       sodipodi:type="arc"
       style="fill:none;stroke:url(#linearGradient3899-6);stroke-width:1.5;stroke-miterlimit:4;stroke-opacity:1;stroke-dasharray:none;display:inline"
       id="path2990-8-3"
       sodipodi:cx="74"
       sodipodi:cy="26"
       sodipodi:rx="18"
       sodipodi:ry="18"
       d="m 92,26 a 18,18 0 1 1 -36,0 18,18 0 1 1 36,0 z"
       transform="translate(-50,-2)" />
    <path
       style="fill:none;stroke:url(#linearGradient4079);stroke-width:1.5;stroke-miterlimit:4;stroke-dasharray:none;display:inline"
       d="m 106,6 c -2.07968,0 -4,1.5291429 -4,3.4285714 l 0,17.1428576 C 102,28.470857 103.92032,30 106,30 l 6.31545,0 18.91059,10.285714 L 128,30 l 6.24608,0 C 136.32574,30 138,28.470857 138,26.571429 L 138,9.4285714 C 138,7.5291429 136.32574,6 134.24608,6 L 106,6 z"
       id="rect4076-8"
       sodipodi:nodetypes="cccccccccccc" />
    <path
       style="fill:none;stroke:url(#linearGradient4139);stroke-width:1.5;stroke-miterlimit:4;stroke-dasharray:none;display:inline"
       d="m 154,6 c -2.216,0 -4,1.784 -4,4 l 0,16 c 0,2.216 1.784,4 4,4 l 8,0 c 0,2.209139 2,4 6,4 4,0 6,-1.790861 6,-4 l 8,0 c 2.216,0 4,-1.784 4,-4 l 0,-16 c 0,-2.216 -1.784,-4 -4,-4 l -28,0 z"
       id="rect4076-6-8"
       sodipodi:nodetypes="cccccscccccc" />
    <path
       sodipodi:type="arc"
       style="fill:none;stroke:url(#linearGradient4252);stroke-width:1.5;stroke-miterlimit:4;stroke-opacity:1;stroke-dasharray:none;display:inline"
       id="path4104-5"
       sodipodi:cx="177"
       sodipodi:cy="40"
       sodipodi:rx="2.6875"
       sodipodi:ry="0.5625"
       d="m 179.6875,40 a 2.6875,0.5625 0 1 1 -5.375,0 2.6875,0.5625 0 1 1 5.375,0 z"
       transform="translate(-1,-1.09375)" />
    <path
       sodipodi:type="arc"
       style="fill:#f5f5f5;fill-opacity:1;stroke:none;display:inline"
       id="path4106-2"
       sodipodi:cx="184"
       sodipodi:cy="45"
       sodipodi:rx="0.875"
       sodipodi:ry="0.40625"
       d="m 184.875,45 a 0.875,0.40625 0 1 1 -1.75,0 0.875,0.40625 0 1 1 1.75,0 z"
       transform="translate(-2.03125,-2.03125)" />
    <path
       style="fill:url(#radialGradient4312);fill-opacity:1;stroke:none;display:inline"
       d="m 200,4 c -2.216,0 -4,1.784 -4,4 l 0,20 c 0,2.216 1.784,4 4,4 l 8,0 c 0,2.209139 3.58172,4 8,4 4.41828,0 8,-1.790861 8,-4 l 8,0 c 2.216,0 4,-1.784 4,-4 l 0,-20 c 0,-2.216 -1.784,-4 -4,-4 l -32,0 z"
       id="rect4076-6-6" />
    <path
       sodipodi:type="arc"
       style="fill:url(#radialGradient4212-5);fill-opacity:1;stroke:none;display:inline"
       id="path4104-51"
       sodipodi:cx="177"
       sodipodi:cy="40"
       sodipodi:rx="5"
       sodipodi:ry="2"
       d="m 182,40 a 5,2 0 1 1 -10,0 5,2 0 1 1 10,0 z"
       transform="translate(47,-1.0625)" />
    <path
       sodipodi:type="arc"
       style="fill:url(#radialGradient4244-8);fill-opacity:1;stroke:none;display:inline"
       id="path4106-9"
       sodipodi:cx="184"
       sodipodi:cy="45"
       sodipodi:rx="2"
       sodipodi:ry="1"
       d="m 186,45 a 2,1 0 1 1 -4,0 2,1 0 1 1 4,0 z"
       transform="translate(46,-2)" />
    <path
       style="fill:none;stroke:url(#linearGradient4139-0);stroke-width:1.5;stroke-miterlimit:4;stroke-dasharray:none;display:inline"
       d="m 202,6 c -2.216,0 -4,1.784 -4,4 l 0,16 c 0,2.216 1.784,4 4,4 l 8,0 c 0,2.209139 2,4 6,4 4,0 6,-1.790861 6,-4 l 8,0 c 2.216,0 4,-1.784 4,-4 l 0,-16 c 0,-2.216 -1.784,-4 -4,-4 l -28,0 z"
       id="rect4076-6-8-4"
       sodipodi:nodetypes="cccccscccccc" />
    <path
       sodipodi:type="arc"
       style="fill:none;stroke:url(#linearGradient4252-6);stroke-width:1.5;stroke-miterlimit:4;stroke-opacity:1;stroke-dasharray:none;display:inline"
       id="path4104-5-4"
       sodipodi:cx="177"
       sodipodi:cy="40"
       sodipodi:rx="2.6875"
       sodipodi:ry="0.5625"
       d="m 179.6875,40 a 2.6875,0.5625 0 1 1 -5.375,0 2.6875,0.5625 0 1 1 5.375,0 z"
       transform="translate(47,-1.09375)" />
    <path
       sodipodi:type="arc"
       style="fill:#f5f5f5;fill-opacity:1;stroke:none;display:inline"
       id="path4106-2-1"
       sodipodi:cx="184"
       sodipodi:cy="45"
       sodipodi:rx="0.875"
       sodipodi:ry="0.40625"
       d="m 184.875,45 a 0.875,0.40625 0 1 1 -1.75,0 0.875,0.40625 0 1 1 1.75,0 z"
       transform="translate(45.96875,-2.03125)" />
    <path
       style="fill:url(#radialGradient4672);fill-opacity:1;stroke:none;display:inline"
       d="m 264,4 c -11.04569,0 -20,8.954305 -20,20 0,11.045695 8.95431,20 20,20 11.04569,0 20,-8.954305 20,-20 0,-11.045695 -8.95431,-20 -20,-20 z m -8,16 16,0 c 2,0 4,2 4,4 0,2 -2,4 -4,4 l -16,0 c -2,0 -4,-2 -4,-4 0,-2 2,-4 4,-4 z"
       id="path2990-0-3"
       sodipodi:nodetypes="cssscccsccsc" />
    <path
       sodipodi:type="arc"
       style="fill:none;stroke:url(#linearGradient3899-6-0);stroke-width:1.5;stroke-miterlimit:4;stroke-opacity:1;stroke-dasharray:none;display:inline"
       id="path2990-8-3-7"
       sodipodi:cx="74"
       sodipodi:cy="26"
       sodipodi:rx="18"
       sodipodi:ry="18"
       d="m 92,26 a 18,18 0 1 1 -36,0 18,18 0 1 1 36,0 z"
       transform="translate(190,-2)" />
    <rect
       style="fill:none;stroke:url(#linearGradient4731);stroke-width:1.5;stroke-miterlimit:4;stroke-dasharray:none"
       id="rect4723"
       width="28.000046"
       height="11.999998"
       x="250"
       y="18"
       ry="5.999999" />
  </g>
</svg>
